<mxfile host="app.diagrams.net" agent="Mozilla/5.0 (Windows NT 10.0; Win64; x64; rv:134.0) Gecko/20100101 Firefox/134.0" version="26.0.4">
  <diagram name="第 1 页" id="5vqu-0reOJq2Jgpv3lD1">
    <mxGraphModel dx="1889" dy="1728" grid="1" gridSize="10" guides="0" tooltips="1" connect="1" arrows="1" fold="1" page="1" pageScale="1" pageWidth="827" pageHeight="1169" math="0" shadow="0">
      <root>
        <mxCell id="0" />
        <mxCell id="1" parent="0" />
        <mxCell id="aULlL3HM19Tbot_qCnws-8" value="参数" style="rounded=1;whiteSpace=wrap;html=1;" parent="1" vertex="1">
          <mxGeometry x="-60" y="440" width="430" height="60" as="geometry" />
        </mxCell>
        <mxCell id="aULlL3HM19Tbot_qCnws-33" value="&lt;span style=&quot;font-size: 14px;&quot;&gt;I 熔魂之始&lt;/span&gt;" style="shape=umlFrame;whiteSpace=wrap;html=1;pointerEvents=0;width=120;height=30;" parent="1" vertex="1">
          <mxGeometry x="-60" y="520" width="1150" height="470" as="geometry" />
        </mxCell>
        <mxCell id="mi8AZ16wxu1bti9qcB2e-2" value="&lt;div&gt;普通作战&lt;/div&gt;冰川期" style="rounded=1;whiteSpace=wrap;html=1;fillColor=#fff2cc;strokeColor=#d6b656;fontSize=15;" parent="1" vertex="1">
          <mxGeometry x="50" y="680" width="120" height="60" as="geometry" />
        </mxCell>
        <mxCell id="mi8AZ16wxu1bti9qcB2e-3" value="&lt;div&gt;普通作战&lt;/div&gt;&lt;div&gt;坏邻居&lt;/div&gt;&lt;div&gt;先锋券&lt;br&gt;&lt;/div&gt;" style="rounded=1;whiteSpace=wrap;html=1;fillColor=#fff2cc;strokeColor=#d6b656;fontSize=15;" parent="1" vertex="1">
          <mxGeometry x="50" y="800" width="120" height="60" as="geometry" />
        </mxCell>
        <mxCell id="mi8AZ16wxu1bti9qcB2e-8" value="不期而遇" style="rounded=1;whiteSpace=wrap;html=1;fillColor=#b0e3e6;strokeColor=#0e8088;fontSize=15;fontFamily=Helvetica;" parent="1" vertex="1">
          <mxGeometry x="290" y="860" width="120" height="60" as="geometry" />
        </mxCell>
        <mxCell id="mi8AZ16wxu1bti9qcB2e-9" value="&lt;div&gt;不期而遇&lt;/div&gt;阴魂不散" style="rounded=1;whiteSpace=wrap;html=1;fillColor=#b0e3e6;strokeColor=#0e8088;fontSize=15;fontFamily=Helvetica;" parent="1" vertex="1">
          <mxGeometry x="520" y="670" width="120" height="60" as="geometry" />
        </mxCell>
        <mxCell id="mi8AZ16wxu1bti9qcB2e-10" value="&lt;div&gt;不期而遇&lt;/div&gt;&lt;div&gt;虫卡兹&lt;br&gt;&lt;/div&gt;" style="rounded=1;whiteSpace=wrap;html=1;fillColor=#b0e3e6;strokeColor=#0e8088;fontSize=15;" parent="1" vertex="1">
          <mxGeometry x="520" y="790" width="120" height="60" as="geometry" />
        </mxCell>
        <mxCell id="mi8AZ16wxu1bti9qcB2e-12" value="诡意行商" style="rounded=1;whiteSpace=wrap;html=1;fontSize=15;fillColor=#b0e3e6;strokeColor=#0e8088;" parent="1" vertex="1">
          <mxGeometry x="720" y="720" width="120" height="60" as="geometry" />
        </mxCell>
        <mxCell id="mi8AZ16wxu1bti9qcB2e-13" style="edgeStyle=orthogonalEdgeStyle;rounded=0;orthogonalLoop=1;jettySize=auto;html=1;endArrow=blockThin;endFill=1;strokeWidth=3;strokeColor=#45736C;curved=1;entryX=0;entryY=0.5;entryDx=0;entryDy=0;" parent="1" source="mi8AZ16wxu1bti9qcB2e-2" target="sezaCKx0sOWfPG7n4I1d-2" edge="1">
          <mxGeometry relative="1" as="geometry">
            <mxPoint x="290" y="650" as="targetPoint" />
          </mxGeometry>
        </mxCell>
        <mxCell id="mi8AZ16wxu1bti9qcB2e-15" style="edgeStyle=orthogonalEdgeStyle;rounded=0;orthogonalLoop=1;jettySize=auto;html=1;endArrow=blockThin;endFill=1;strokeWidth=3;strokeColor=#45736C;curved=1;entryX=0;entryY=0.5;entryDx=0;entryDy=0;" parent="1" source="mi8AZ16wxu1bti9qcB2e-3" target="mi8AZ16wxu1bti9qcB2e-8" edge="1">
          <mxGeometry relative="1" as="geometry" />
        </mxCell>
        <mxCell id="mi8AZ16wxu1bti9qcB2e-16" style="edgeStyle=orthogonalEdgeStyle;rounded=0;orthogonalLoop=1;jettySize=auto;html=1;endArrow=blockThin;endFill=1;strokeWidth=3;strokeColor=#45736C;curved=1;entryX=0;entryY=0.5;entryDx=0;entryDy=0;exitX=1;exitY=0.5;exitDx=0;exitDy=0;" parent="1" source="mi8AZ16wxu1bti9qcB2e-8" target="mi8AZ16wxu1bti9qcB2e-10" edge="1">
          <mxGeometry relative="1" as="geometry" />
        </mxCell>
        <mxCell id="mi8AZ16wxu1bti9qcB2e-17" style="edgeStyle=orthogonalEdgeStyle;rounded=0;orthogonalLoop=1;jettySize=auto;html=1;endArrow=blockThin;endFill=1;strokeWidth=3;strokeColor=#45736C;curved=1;entryX=0;entryY=0.5;entryDx=0;entryDy=0;exitX=1;exitY=0.5;exitDx=0;exitDy=0;" parent="1" target="mi8AZ16wxu1bti9qcB2e-10" edge="1">
          <mxGeometry relative="1" as="geometry">
            <mxPoint x="410" y="770" as="sourcePoint" />
          </mxGeometry>
        </mxCell>
        <mxCell id="mi8AZ16wxu1bti9qcB2e-18" style="edgeStyle=orthogonalEdgeStyle;rounded=0;orthogonalLoop=1;jettySize=auto;html=1;endArrow=blockThin;endFill=1;strokeWidth=3;strokeColor=#45736C;curved=1;entryX=0;entryY=0.5;entryDx=0;entryDy=0;exitX=1;exitY=0.5;exitDx=0;exitDy=0;" parent="1" target="mi8AZ16wxu1bti9qcB2e-9" edge="1">
          <mxGeometry relative="1" as="geometry">
            <mxPoint x="410" y="770" as="sourcePoint" />
          </mxGeometry>
        </mxCell>
        <mxCell id="mi8AZ16wxu1bti9qcB2e-19" style="edgeStyle=orthogonalEdgeStyle;rounded=0;orthogonalLoop=1;jettySize=auto;html=1;endArrow=blockThin;endFill=1;strokeWidth=3;strokeColor=#B5739D;curved=1;entryX=0;entryY=0.5;entryDx=0;entryDy=0;exitX=1;exitY=0.5;exitDx=0;exitDy=0;" parent="1" target="mi8AZ16wxu1bti9qcB2e-9" edge="1">
          <mxGeometry relative="1" as="geometry">
            <mxPoint x="410" y="650" as="sourcePoint" />
          </mxGeometry>
        </mxCell>
        <mxCell id="mi8AZ16wxu1bti9qcB2e-20" style="edgeStyle=orthogonalEdgeStyle;rounded=0;orthogonalLoop=1;jettySize=auto;html=1;endArrow=blockThin;endFill=1;strokeWidth=3;strokeColor=#45736C;curved=1;entryX=0;entryY=0.5;entryDx=0;entryDy=0;" parent="1" source="mi8AZ16wxu1bti9qcB2e-9" target="mi8AZ16wxu1bti9qcB2e-12" edge="1">
          <mxGeometry relative="1" as="geometry" />
        </mxCell>
        <mxCell id="mi8AZ16wxu1bti9qcB2e-21" style="edgeStyle=orthogonalEdgeStyle;rounded=0;orthogonalLoop=1;jettySize=auto;html=1;endArrow=blockThin;endFill=1;strokeWidth=3;strokeColor=#B5739D;curved=1;entryX=0;entryY=0.5;entryDx=0;entryDy=0;exitX=1;exitY=0.5;exitDx=0;exitDy=0;" parent="1" source="mi8AZ16wxu1bti9qcB2e-10" target="mi8AZ16wxu1bti9qcB2e-12" edge="1">
          <mxGeometry relative="1" as="geometry" />
        </mxCell>
        <mxCell id="mi8AZ16wxu1bti9qcB2e-22" value="&lt;div&gt;2&lt;/div&gt;" style="shape=umlFrame;whiteSpace=wrap;html=1;pointerEvents=0;width=120;height=30;" parent="1" vertex="1">
          <mxGeometry x="-60" y="990" width="1150" height="470" as="geometry" />
        </mxCell>
        <mxCell id="mi8AZ16wxu1bti9qcB2e-25" value="github：abc2513 明日方舟肉鸽地图UML图模板" style="swimlane;horizontal=0;whiteSpace=wrap;html=1;startSize=23;" parent="1" vertex="1">
          <mxGeometry x="-130" y="1740" width="1360" height="350" as="geometry" />
        </mxCell>
        <mxCell id="aULlL3HM19Tbot_qCnws-2" value="不期而遇" style="rounded=1;whiteSpace=wrap;html=1;fillColor=#b0e3e6;strokeColor=#0e8088;fontSize=15;fontFamily=Helvetica;" parent="mi8AZ16wxu1bti9qcB2e-25" vertex="1">
          <mxGeometry x="90" y="80" width="120" height="60" as="geometry" />
        </mxCell>
        <mxCell id="aULlL3HM19Tbot_qCnws-3" value="普通作战" style="rounded=1;whiteSpace=wrap;html=1;fillColor=#fff2cc;strokeColor=#d6b656;fontSize=15;" parent="mi8AZ16wxu1bti9qcB2e-25" vertex="1">
          <mxGeometry x="210" y="80" width="120" height="60" as="geometry" />
        </mxCell>
        <mxCell id="aULlL3HM19Tbot_qCnws-18" value="失与得" style="rounded=1;whiteSpace=wrap;html=1;fontSize=15;fillColor=#b0e3e6;strokeColor=#0e8088;" parent="mi8AZ16wxu1bti9qcB2e-25" vertex="1">
          <mxGeometry x="90" y="140" width="120" height="60" as="geometry" />
        </mxCell>
        <mxCell id="aULlL3HM19Tbot_qCnws-13" value="狭路相逢" style="rounded=1;whiteSpace=wrap;html=1;fontSize=15;fillColor=#b0e3e6;strokeColor=#0e8088;" parent="mi8AZ16wxu1bti9qcB2e-25" vertex="1">
          <mxGeometry x="90" y="200" width="120" height="60" as="geometry" />
        </mxCell>
        <mxCell id="aULlL3HM19Tbot_qCnws-19" value="先行一步" style="rounded=1;whiteSpace=wrap;html=1;fontSize=15;fillColor=#b0e3e6;strokeColor=#0e8088;" parent="mi8AZ16wxu1bti9qcB2e-25" vertex="1">
          <mxGeometry x="210" y="140" width="120" height="60" as="geometry" />
        </mxCell>
        <mxCell id="aULlL3HM19Tbot_qCnws-12" value="诡意行商" style="rounded=1;whiteSpace=wrap;html=1;fontSize=15;fillColor=#b0e3e6;strokeColor=#0e8088;" parent="mi8AZ16wxu1bti9qcB2e-25" vertex="1">
          <mxGeometry x="210" y="200" width="120" height="60" as="geometry" />
        </mxCell>
        <mxCell id="aULlL3HM19Tbot_qCnws-26" value="命运所指" style="rounded=1;whiteSpace=wrap;html=1;fontSize=15;fillColor=#b0e3e6;strokeColor=#0e8088;" parent="mi8AZ16wxu1bti9qcB2e-25" vertex="1">
          <mxGeometry x="330" y="200" width="120" height="60" as="geometry" />
        </mxCell>
        <mxCell id="aULlL3HM19Tbot_qCnws-20" value="思维边界" style="rounded=1;whiteSpace=wrap;html=1;fontSize=15;fillColor=#d0cee2;strokeColor=#56517e;" parent="mi8AZ16wxu1bti9qcB2e-25" vertex="1">
          <mxGeometry x="330" y="140" width="120" height="60" as="geometry" />
        </mxCell>
        <mxCell id="aULlL3HM19Tbot_qCnws-4" value="紧急作战" style="rounded=1;whiteSpace=wrap;html=1;fillColor=#f8cecc;strokeColor=#b85450;fontSize=15;" parent="mi8AZ16wxu1bti9qcB2e-25" vertex="1">
          <mxGeometry x="330" y="80" width="120" height="60" as="geometry" />
        </mxCell>
        <mxCell id="aULlL3HM19Tbot_qCnws-5" value="险路恶敌" style="rounded=1;whiteSpace=wrap;html=1;fontSize=15;fillColor=#FF9999;strokeColor=#660000;" parent="mi8AZ16wxu1bti9qcB2e-25" vertex="1">
          <mxGeometry x="450" y="80" width="120" height="60" as="geometry" />
        </mxCell>
        <mxCell id="aULlL3HM19Tbot_qCnws-16" value="兴致盎然" style="rounded=1;whiteSpace=wrap;html=1;fontSize=15;fillColor=#b0e3e6;strokeColor=#0e8088;" parent="mi8AZ16wxu1bti9qcB2e-25" vertex="1">
          <mxGeometry x="450" y="140" width="120" height="60" as="geometry" />
        </mxCell>
        <mxCell id="aULlL3HM19Tbot_qCnws-15" value="得偿所愿" style="rounded=1;whiteSpace=wrap;html=1;fontSize=15;fillColor=#b0e3e6;strokeColor=#0e8088;" parent="mi8AZ16wxu1bti9qcB2e-25" vertex="1">
          <mxGeometry x="450" y="200" width="120" height="60" as="geometry" />
        </mxCell>
        <mxCell id="aULlL3HM19Tbot_qCnws-14" value="去伪存真" style="rounded=1;whiteSpace=wrap;html=1;fontSize=15;fillColor=#fad7ac;strokeColor=#b46504;" parent="mi8AZ16wxu1bti9qcB2e-25" vertex="1">
          <mxGeometry x="570" y="140" width="120" height="60" as="geometry" />
        </mxCell>
        <mxCell id="aULlL3HM19Tbot_qCnws-9" value="安全的角落" style="rounded=1;whiteSpace=wrap;html=1;fontSize=15;fillColor=#b1ddf0;strokeColor=#10739e;" parent="mi8AZ16wxu1bti9qcB2e-25" vertex="1">
          <mxGeometry x="570" y="80" width="120" height="60" as="geometry" />
        </mxCell>
        <mxCell id="aULlL3HM19Tbot_qCnws-21" value="道路示例" style="rounded=1;whiteSpace=wrap;html=1;fontSize=15;" parent="mi8AZ16wxu1bti9qcB2e-25" vertex="1">
          <mxGeometry x="750" y="170" width="120" height="60" as="geometry" />
        </mxCell>
        <mxCell id="aULlL3HM19Tbot_qCnws-22" value="" style="rounded=1;whiteSpace=wrap;html=1;fontSize=15;" parent="mi8AZ16wxu1bti9qcB2e-25" vertex="1">
          <mxGeometry x="970" y="60" width="120" height="60" as="geometry" />
        </mxCell>
        <mxCell id="aULlL3HM19Tbot_qCnws-23" value="分叉路示例" style="rounded=1;whiteSpace=wrap;html=1;fontSize=15;" parent="mi8AZ16wxu1bti9qcB2e-25" vertex="1">
          <mxGeometry x="970" y="170" width="120" height="60" as="geometry" />
        </mxCell>
        <mxCell id="aULlL3HM19Tbot_qCnws-25" style="edgeStyle=orthogonalEdgeStyle;rounded=0;orthogonalLoop=1;jettySize=auto;html=1;strokeWidth=4;endArrow=none;endFill=0;strokeColor=#45736C;dashed=1;dashPattern=1 1;" parent="mi8AZ16wxu1bti9qcB2e-25" source="aULlL3HM19Tbot_qCnws-23" target="aULlL3HM19Tbot_qCnws-22" edge="1">
          <mxGeometry relative="1" as="geometry" />
        </mxCell>
        <mxCell id="aULlL3HM19Tbot_qCnws-24" style="edgeStyle=orthogonalEdgeStyle;rounded=0;orthogonalLoop=1;jettySize=auto;html=1;endArrow=blockThin;endFill=1;strokeWidth=3;strokeColor=#45736C;curved=1;entryX=0;entryY=0.5;entryDx=0;entryDy=0;exitX=1;exitY=0.5;exitDx=0;exitDy=0;" parent="mi8AZ16wxu1bti9qcB2e-25" source="aULlL3HM19Tbot_qCnws-21" target="aULlL3HM19Tbot_qCnws-22" edge="1">
          <mxGeometry relative="1" as="geometry" />
        </mxCell>
        <mxCell id="aULlL3HM19Tbot_qCnws-30" value="刷新节点" style="rounded=1;whiteSpace=wrap;html=1;fontSize=15;" parent="mi8AZ16wxu1bti9qcB2e-25" vertex="1">
          <mxGeometry x="1190" y="220" width="120" height="60" as="geometry" />
        </mxCell>
        <mxCell id="aULlL3HM19Tbot_qCnws-31" style="rounded=0;orthogonalLoop=1;jettySize=auto;html=1;strokeWidth=2;strokeColor=#45736C;shape=flexArrow;" parent="mi8AZ16wxu1bti9qcB2e-25" source="aULlL3HM19Tbot_qCnws-23" target="aULlL3HM19Tbot_qCnws-30" edge="1">
          <mxGeometry relative="1" as="geometry" />
        </mxCell>
        <mxCell id="sezaCKx0sOWfPG7n4I1d-2" value="&lt;div&gt;不期而遇&lt;/div&gt;在故事结束之后" style="rounded=1;whiteSpace=wrap;html=1;fillColor=#b0e3e6;strokeColor=#0e8088;fontSize=15;fontFamily=Helvetica;" vertex="1" parent="1">
          <mxGeometry x="290" y="620" width="120" height="60" as="geometry" />
        </mxCell>
        <mxCell id="sezaCKx0sOWfPG7n4I1d-3" value="&lt;div&gt;普通作战&lt;/div&gt;安全检查" style="rounded=1;whiteSpace=wrap;html=1;fillColor=#fff2cc;strokeColor=#d6b656;fontSize=15;" vertex="1" parent="1">
          <mxGeometry x="290" y="740" width="120" height="60" as="geometry" />
        </mxCell>
        <mxCell id="sezaCKx0sOWfPG7n4I1d-4" style="edgeStyle=orthogonalEdgeStyle;rounded=0;orthogonalLoop=1;jettySize=auto;html=1;endArrow=blockThin;endFill=1;strokeWidth=3;strokeColor=#45736C;curved=1;" edge="1" parent="1" source="mi8AZ16wxu1bti9qcB2e-3" target="sezaCKx0sOWfPG7n4I1d-3">
          <mxGeometry relative="1" as="geometry" />
        </mxCell>
        <mxCell id="sezaCKx0sOWfPG7n4I1d-5" style="edgeStyle=orthogonalEdgeStyle;rounded=0;orthogonalLoop=1;jettySize=auto;html=1;endArrow=blockThin;endFill=1;strokeWidth=3;strokeColor=#B5739D;curved=1;entryX=0;entryY=0.5;entryDx=0;entryDy=0;" edge="1" parent="1" source="mi8AZ16wxu1bti9qcB2e-3" target="sezaCKx0sOWfPG7n4I1d-2">
          <mxGeometry relative="1" as="geometry" />
        </mxCell>
        <mxCell id="sezaCKx0sOWfPG7n4I1d-7" style="edgeStyle=orthogonalEdgeStyle;rounded=0;orthogonalLoop=1;jettySize=auto;html=1;strokeWidth=4;endArrow=none;endFill=0;strokeColor=#B5739D;dashed=1;dashPattern=1 1;" edge="1" parent="1" source="mi8AZ16wxu1bti9qcB2e-10" target="mi8AZ16wxu1bti9qcB2e-9">
          <mxGeometry relative="1" as="geometry" />
        </mxCell>
        <mxCell id="sezaCKx0sOWfPG7n4I1d-8" value="选遗愿拿两个知交" style="text;html=1;align=center;verticalAlign=middle;resizable=0;points=[];autosize=1;strokeColor=none;fillColor=none;" vertex="1" parent="1">
          <mxGeometry x="540" y="870" width="120" height="30" as="geometry" />
        </mxCell>
        <mxCell id="sezaCKx0sOWfPG7n4I1d-9" value="命运所指" style="rounded=1;whiteSpace=wrap;html=1;fontSize=15;fillColor=#b0e3e6;strokeColor=#0e8088;" vertex="1" parent="1">
          <mxGeometry x="30" y="1170" width="120" height="60" as="geometry" />
        </mxCell>
        <mxCell id="sezaCKx0sOWfPG7n4I1d-10" value="选藏品拿苔心魔宝宝" style="text;html=1;align=center;verticalAlign=middle;resizable=0;points=[];autosize=1;strokeColor=none;fillColor=none;" vertex="1" parent="1">
          <mxGeometry x="40" y="1238" width="130" height="30" as="geometry" />
        </mxCell>
        <mxCell id="sezaCKx0sOWfPG7n4I1d-11" value="先行一步" style="rounded=1;whiteSpace=wrap;html=1;fontSize=15;fillColor=#b0e3e6;strokeColor=#0e8088;" vertex="1" parent="1">
          <mxGeometry x="270" y="1070" width="120" height="60" as="geometry" />
        </mxCell>
        <mxCell id="sezaCKx0sOWfPG7n4I1d-12" value="先行一步" style="rounded=1;whiteSpace=wrap;html=1;fontSize=15;fillColor=#b0e3e6;strokeColor=#0e8088;" vertex="1" parent="1">
          <mxGeometry x="460" y="430" width="120" height="60" as="geometry" />
        </mxCell>
        <mxCell id="sezaCKx0sOWfPG7n4I1d-13" value="&lt;div&gt;普通作战&lt;/div&gt;有序清场" style="rounded=1;whiteSpace=wrap;html=1;fillColor=#fff2cc;strokeColor=#d6b656;fontSize=15;" vertex="1" parent="1">
          <mxGeometry x="270" y="1180" width="120" height="60" as="geometry" />
        </mxCell>
        <mxCell id="sezaCKx0sOWfPG7n4I1d-14" value="&lt;div&gt;普通作战&lt;/div&gt;拆东补西" style="rounded=1;whiteSpace=wrap;html=1;fillColor=#fff2cc;strokeColor=#d6b656;fontSize=15;" vertex="1" parent="1">
          <mxGeometry x="280" y="1310" width="120" height="60" as="geometry" />
        </mxCell>
        <mxCell id="sezaCKx0sOWfPG7n4I1d-15" value="紧急作战" style="rounded=1;whiteSpace=wrap;html=1;fillColor=#f8cecc;strokeColor=#b85450;fontSize=15;" vertex="1" parent="1">
          <mxGeometry x="520" y="1070" width="120" height="60" as="geometry" />
        </mxCell>
        <mxCell id="sezaCKx0sOWfPG7n4I1d-16" value="紧急作战" style="rounded=1;whiteSpace=wrap;html=1;fillColor=#f8cecc;strokeColor=#b85450;fontSize=15;" vertex="1" parent="1">
          <mxGeometry x="1090" y="450" width="120" height="60" as="geometry" />
        </mxCell>
        <mxCell id="sezaCKx0sOWfPG7n4I1d-17" value="不期而遇" style="rounded=1;whiteSpace=wrap;html=1;fillColor=#b0e3e6;strokeColor=#0e8088;fontSize=15;fontFamily=Helvetica;" vertex="1" parent="1">
          <mxGeometry x="520" y="1190" width="120" height="60" as="geometry" />
        </mxCell>
        <mxCell id="sezaCKx0sOWfPG7n4I1d-18" value="紧急作战" style="rounded=1;whiteSpace=wrap;html=1;fillColor=#f8cecc;strokeColor=#b85450;fontSize=15;" vertex="1" parent="1">
          <mxGeometry x="1530" y="-60" width="120" height="60" as="geometry" />
        </mxCell>
        <mxCell id="sezaCKx0sOWfPG7n4I1d-19" value="不期而遇" style="rounded=1;whiteSpace=wrap;html=1;fillColor=#b0e3e6;strokeColor=#0e8088;fontSize=15;fontFamily=Helvetica;" vertex="1" parent="1">
          <mxGeometry x="740" y="1250" width="120" height="60" as="geometry" />
        </mxCell>
        <mxCell id="sezaCKx0sOWfPG7n4I1d-20" value="普通作战" style="rounded=1;whiteSpace=wrap;html=1;fillColor=#fff2cc;strokeColor=#d6b656;fontSize=15;" vertex="1" parent="1">
          <mxGeometry x="520" y="1310" width="120" height="60" as="geometry" />
        </mxCell>
        <mxCell id="sezaCKx0sOWfPG7n4I1d-21" value="普通作战" style="rounded=1;whiteSpace=wrap;html=1;fillColor=#fff2cc;strokeColor=#d6b656;fontSize=15;" vertex="1" parent="1">
          <mxGeometry x="740" y="1110" width="120" height="60" as="geometry" />
        </mxCell>
        <mxCell id="sezaCKx0sOWfPG7n4I1d-22" value="去伪存真" style="rounded=1;whiteSpace=wrap;html=1;fontSize=15;fillColor=#fad7ac;strokeColor=#b46504;" vertex="1" parent="1">
          <mxGeometry x="940" y="1170" width="120" height="60" as="geometry" />
        </mxCell>
      </root>
    </mxGraphModel>
  </diagram>
</mxfile>
